<svg xmlns="http://www.w3.org/2000/svg" viewBox="0 0 31.64 50.73">
    <g id="Layer_2" data-name="Layer 2">
        <g id="Layer_1-2" data-name="Layer 1">
            <path d="M31.64,32.25l-4.21-8.6-1.35.66,1.35-.66-3.72-7.59h0L15.85,0,7.93,16.05l1.35.66-1.35-.66L4.21,23.65h0L0,32.25l14.29,13.1v5.38h3V45.4Zm-7.06-7.6-7.28,6.67V25.4l5.28-4.84ZM28,31.55,17.29,41.32V35.4L26,27.46ZM22.36,16.72,21,17.38l.18.37-3.9,3.58V9.78L21,17.38ZM14.29,9.93V21.28l-3.85-3.53.18-.37h0ZM9.06,20.56l5.23,4.79v5.93L7.06,24.65ZM6.19,24.62h0l-.63-.31Zm-.51,2.84,8.61,7.89v5.93L3.68,31.55Z">
            </path>
        </g>
    </g>
</svg>
